<?xml version="1.0" standalone="no"?><!DOCTYPE svg PUBLIC "-//W3C//DTD SVG 1.1//EN" "http://www.w3.org/Graphics/SVG/1.1/DTD/svg11.dtd" ><svg xmlns="http://www.w3.org/2000/svg"><metadata></metadata><defs><font id="FontForge 2.0 : iconfont : 9-7-2017" horiz-adv-x="1171"><font-face font-family="iconfont" font-weight="500" font-stretch="normal" units-per-em="1024" panose-1="2 0 6 3 0 0 0 0 0 0" ascent="896" descent="-213" x-height="0" bbox="-1 -213 1171 896" underline-thickness="0" underline-position="0" unicode-range="U+0000-e877" /><missing-glyph horiz-adv-x="1024"  /><glyph glyph-name=".null" unicode="" d="" /><glyph glyph-name="nonmarkingreturn" unicode="" d="" /><glyph glyph-name="x" unicode="x" d="M281 543 q-27 -1 -53 -1 l-83 0 q-18 0 -36.5 -6 q-18.5 -6 -32.5 -18.5 q-14 -12.5 -23 -32 q-9 -19.5 -9 -45.5 l0 -76 l912 0 l0 41 q0 16 -0.5 30 q-0.5 14 -0.5 18 q0 13 -5 29 q-5 16 -17 29.5 q-12 13.5 -31.5 22.5 q-19.5 9 -49.5 9 l-133 0 l0 -97 l-438 0 l0 97 ZM955 310 l0 -52 q0 -23 0.5 -52 q0.5 -29 0.5 -58 q0 -29 -10.5 -47.5 q-10.5 -18.5 -26 -30 q-15.5 -11.5 -33 -16 q-17.5 -4.5 -31.5 -4.5 q-14 -1 -29.5 -0.5 q-15.5 0.5 -29.5 0.5 l-32 0 l-45 128 l-439 0 l-44 -128 l-29 0 l-34 0 q-20 0 -45 1 q-25 0 -41 9.5 q-16 9.5 -25.5 23 q-9.5 13.5 -13.5 29.5 q-4 16 -4 30 l0 167 l911 0 ZM163 247 q-12 0 -21 -8.5 q-9 -8.5 -9 -21.5 q0 -13 9 -21.5 q9 -8.5 21 -8.5 q13 0 22 8.5 q9 8.5 9 21.5 q0 13 -9 21.5 q-9 8.5 -22 8.5 ZM316 123 q-8 -26 -14 -48 q-5 -19 -10.5 -37 q-5.5 -18 -7.5 -25 q-2 -7 -3 -15 q-1 -8 1 -14.5 q2 -6.5 9.5 -10.5 q7.5 -4 21.5 -4 l37 0 l67 0 l81 0 l80 0 l64 0 l36 0 q23 0 34 12 q11 12 2 38 q-5 13 -9.5 30.5 q-4.5 17.5 -9.5 34.5 q-5 19 -11 39 l-368 0 ZM336 498 l0 228 q0 11 2.5 23 q2.5 12 10 21.5 q7.5 9.5 20.5 15.5 q13 6 34 6 l188 0 q31 0 51.5 -14.5 q20.5 -14.5 20.5 -52.5 l0 -227 l-327 0 Z" /><glyph glyph-name="twitter" unicode="&#xe600;" d="M961 661 q-16 -33 -65 -73 q-19 -16 -20 -45 q-18 -345 -308 -480 q-246 -114 -496 25 q-8 4 -8 10 q105 -7 189 32 q47 21 73 44 q-26 6 -29 6 q-91 21 -132 106 q-6 10 -3.5 15 q2.5 5 15.5 4 q23 -2 52 2 q-132 53 -138 186 q6 -2 23.5 -8 q17.5 -6 30 -8.5 q12.5 -2.5 25.5 -2.5 q-61 52 -73 115 q-14 72 21 132 q60 -66 112 -102 q111 -75 251 -91 q13 -2 17.5 1.5 q4.5 3.5 3.5 17.5 q-13 120 88 181 q107 65 203 -6 q41 -30 85 -10 q5 2 65 28 q-23 -62 -76 -98 q21 0 54 9.5 q33 9.5 38 10.5 l2 -1 Z" /><glyph glyph-name="facebook" unicode="&#xe601;" d="M721 834 l0 -145 q-12 1 -30.5 1.5 q-18.5 0.5 -54.5 -6.5 q-36 -7 -48 -25 q-7 -10 -8 -31.5 q-1 -21.5 0 -55.5 q1 -34 1 -48 l141 0 q-23 -107 -29 -140 l-113 0 l0 -450 l-196 0 q0 63 0 221.5 q0 158.5 0 226.5 l-84 0 l0 142 l83 0 q0 5 0 15 q2 49 4 74.5 q2 25.5 7.5 63 q5.5 37.5 17 62.5 q11.5 25 28.5 43 q10 10 19 17.5 q9 7.5 21.5 13 q12.5 5.5 20.5 9 q8 3.5 25.5 6 q17.5 2.5 26.5 4 q9 1.5 34 2 q25 0.5 37 0.5 q12 0 46 0 q34 0 51 0 Z" /><glyph glyph-name="clock" unicode="&#xe602;" d="M240.5 655.5 q112.5 112.5 271.5 112.5 q159 0 271.5 -112.5 q112.5 -112.5 112.5 -271.5 q0 -159 -112.5 -271.5 q-112.5 -112.5 -271.5 -112.5 q-159 0 -271.5 112.5 q-112.5 112.5 -112.5 271.5 q0 159 112.5 271.5 ZM512 896 q-139 0 -257 -68.5 q-118 -68.5 -186.5 -186.5 q-68.5 -118 -68.5 -257 q0 -139 68.5 -257 q68.5 -118 186.5 -186.5 q118 -68.5 257 -68.5 q139 0 257 68.5 q118 68.5 186.5 186.5 q68.5 118 68.5 257 q0 139 -68.5 257 q-68.5 118 -186.5 186.5 q-118 68.5 -257 68.5 l0 0 ZM686 302 l-110 109 l0 229 l-129 0 l0 -256 q0 -28 23 -48 l125 -125 l91 91 Z" /><glyph glyph-name="mail" unicode="&#xe609;" d="M51 441 l0 -485 l928 0 l0 485 l-464 -230 l-464 230 ZM51 644 l0 -129 l464 -230 l464 230 l0 129 l-928 0 Z" /><glyph glyph-name="link" unicode="&#xe6ab;" d="M969 395 l-94 -94 q-44 -44 -104.5 -53.5 q-60.5 -9.5 -113.5 16.5 l218 218 q18 19 18 45.5 q0 26.5 -18 44.5 l-91 91 q-19 19 -45 19 q-26 0 -45 -19 l-218 -218 q-26 53 -16.5 113.5 q9.5 60.5 53.5 104.5 l94 94 q56 57 136 57 q80 0 136 -57 l90 -90 q57 -56 57 -135.5 q0 -79.5 -57 -136.5 ZM377 101 q-27 0 -45.5 19 q-18.5 19 -18.5 45.5 q0 26.5 19 44.5 l271 272 q19 19 45.5 19 q26.5 0 45.5 -19 q19 -19 19 -45.5 q0 -26.5 -19 -45.5 l-272 -271 q-18 -19 -45 -19 ZM151 29 l90 -90 q19 -19 45.5 -19 q26.5 0 45.5 19 l218 218 q26 -53 16 -114 q-10 -61 -53 -104 l-87 -95 q-56 -56 -135.5 -56 q-79.5 0 -135.5 56 l-99 99 q-56 56 -56 135.5 q0 79.5 56 135.5 l95 87 q43 43 104 53 q61 10 114 -16 l-218 -218 q-19 -19 -19 -45.5 q0 -26.5 19 -45.5 Z" /><glyph glyph-name="search" unicode="&#xe65b;" d="M996 -184 q-28 -28 -68 -28 q-40 0 -68 28 l-170 170 q-111 -72 -241 -72 q-92 0 -175 36 q-83 36 -143 96 q-60 60 -95.5 143 q-35.5 83 -35.5 174.5 q0 91.5 35.5 174.5 q35.5 83 95.5 143 q60 60 143.5 95.5 q83.5 35.5 174.5 35.5 q91 0 174 -35.5 q83 -35.5 143 -95.5 q60 -60 96 -143 q36 -83 36 -175 q0 -130 -72 -241 l170 -170 q28 -28 28 -68 q0 -40 -28 -68 l0 0 ZM610 641 q-74 43 -161 43 q-87 0 -161 -43 q-74 -43 -117 -117 q-43 -74 -43 -161 q0 -87 43 -161 q43 -74 117 -116.5 q74 -42.5 161 -42.5 q87 0 161 42.5 q74 42.5 116.5 116.5 q42.5 74 42.5 161 q0 87 -42.5 161 q-42.5 74 -116.5 117 Z" /><glyph glyph-name="smile" unicode="&#xe64a;" d="M685 -28.5 q-83 -35.5 -174 -35.5 q-91 0 -174 35.5 q-83 35.5 -143 95.5 q-60 60 -95.5 143 q-35.5 83 -35.5 174 q0 91 35.5 174 q35.5 83 95.5 143 q60 60 143 95.5 q83 35.5 174 35.5 q91 0 174 -35.5 q83 -35.5 143 -95.5 q60 -60 95.5 -143 q35.5 -83 35.5 -174 q0 -91 -35.5 -174 q-35.5 -83 -95.5 -143 q-60 -60 -143 -95.5 ZM703.5 716.5 q-88.5 51.5 -192.5 51.5 q-104 0 -192.5 -51.5 q-88.5 -51.5 -140 -140 q-51.5 -88.5 -51.5 -192.5 q0 -104 51.5 -192.5 q51.5 -88.5 140 -140 q88.5 -51.5 192.5 -51.5 q104 0 192.5 51.5 q88.5 51.5 140 140 q51.5 88.5 51.5 192.5 q0 104 -51.5 192.5 q-51.5 88.5 -140 140 ZM512 123 q-67 0 -126.5 29 q-59.5 29 -100.5 81 q-8 11 -6.5 24 q1.5 13 12 21 q10.5 8 23.5 6.5 q13 -1.5 21 -11.5 q33 -41 79 -63.5 q46 -22.5 98 -22.5 q53 0 99.5 22.5 q46.5 22.5 78.5 64.5 q8 11 21 12.5 q13 1.5 23.5 -6.5 q10.5 -8 12.5 -21 q2 -13 -7 -24 q-41 -53 -100.5 -82.5 q-59.5 -29.5 -127.5 -29.5 ZM402 395 q-14 -14 -34 -14 q-20 0 -34 14 q-14 14 -14 34 l0 64 q0 20 14 34 q14 14 34 14 q20 0 34 -14 q14 -14 14 -34 l0 -64 q0 -20 -14 -34 ZM690 395 q-14 -14 -34 -14 q-20 0 -34 14 q-14 14 -14 34 l0 64 q0 20 14 34 q14 14 34 14 q20 0 34 -14 q14 -14 14 -34 l0 -64 q0 -20 -14 -34 Z" /><glyph glyph-name="roundrightfill" unicode="&#xe65a;" d="M828.5 700.5 q-131.5 131.5 -316.5 131.5 q-185 0 -316.5 -131.5 q-131.5 -131.5 -131.5 -316.5 q0 -185 131.5 -316.5 q131.5 -131.5 316.5 -131.5 q185 0 316.5 131.5 q131.5 131.5 131.5 316.5 q0 185 -131.5 316.5 ZM662 360 l-160 -158 q-10 -10 -23 -10 q-13 0 -22.5 9.5 q-9.5 9.5 -9.5 23 q0 13.5 10 22.5 l137 136 l-136 137 q-10 9 -10 22.5 q0 13.5 9.5 22.5 q9.5 9 23 9 q13.5 0 22.5 -9 l159 -160 l0 0 l0 0 q4 -4 7 -10 l0 0 q8 -20 -7 -35 Z" /><glyph glyph-name="list" unicode="&#xe682;" d="M896 640 l-288 0 q-13 0 -22.5 9.5 q-9.5 9.5 -9.5 22.5 q0 13 9.5 22.5 q9.5 9.5 22.5 9.5 l288 0 q13 0 22.5 -9.5 q9.5 -9.5 9.5 -22.5 q0 -13 -9.5 -22.5 q-9.5 -9.5 -22.5 -9.5 ZM896 480 l-288 0 q-13 0 -22.5 9.5 q-9.5 9.5 -9.5 22.5 q0 13 9.5 22.5 q9.5 9.5 22.5 9.5 l288 0 q13 0 22.5 -9.5 q9.5 -9.5 9.5 -22.5 q0 -13 -9.5 -22.5 q-9.5 -9.5 -22.5 -9.5 ZM896 224 l-288 0 q-13 0 -22.5 9.5 q-9.5 9.5 -9.5 22.5 q0 13 9.5 22.5 q9.5 9.5 22.5 9.5 l288 0 q13 0 22.5 -9.5 q9.5 -9.5 9.5 -22.5 q0 -13 -9.5 -22.5 q-9.5 -9.5 -22.5 -9.5 ZM896 64 l-288 0 q-13 0 -22.5 9.5 q-9.5 9.5 -9.5 22.5 q0 13 9.5 22.5 q9.5 9.5 22.5 9.5 l288 0 q13 0 22.5 -9.5 q9.5 -9.5 9.5 -22.5 q0 -13 -9.5 -22.5 q-9.5 -9.5 -22.5 -9.5 ZM384 416 l-192 0 q-40 0 -68 28 q-28 28 -28 68 l0 192 q0 40 28 68 q28 28 68 28 l192 0 q40 0 68 -28 q28 -28 28 -68 l0 -192 q0 -40 -28 -68 q-28 -28 -68 -28 ZM192 736 q-13 0 -22.5 -9.5 q-9.5 -9.5 -9.5 -22.5 l0 -192 q0 -13 9.5 -22.5 q9.5 -9.5 22.5 -9.5 l192 0 q13 0 22.5 9.5 q9.5 9.5 9.5 22.5 l0 192 q0 13 -9.5 22.5 q-9.5 9.5 -22.5 9.5 l-192 0 ZM384 -32 l-192 0 q-40 0 -68 28 q-28 28 -28 68 l0 192 q0 40 28 68 q28 28 68 28 l192 0 q40 0 68 -28 q28 -28 28 -68 l0 -192 q0 -40 -28 -68 q-28 -28 -68 -28 ZM192 288 q-13 0 -22.5 -9.5 q-9.5 -9.5 -9.5 -22.5 l0 -192 q0 -13 9.5 -22.5 q9.5 -9.5 22.5 -9.5 l192 0 q13 0 22.5 9.5 q9.5 9.5 9.5 22.5 l0 192 q0 13 -9.5 22.5 q-9.5 9.5 -22.5 9.5 l-192 0 Z" /><glyph glyph-name="book" unicode="&#xe6fe;" d="M289 2 l0 798 l612 0 l6 0 q11 0 19 -7.5 q8 -7.5 8 -18.5 l0 -745 q0 -11 -8 -19 q-8 -8 -19 -8 l0 0 q-3 0 -6 0 l-612 0 l0 0 ZM907 -200 q11 0 19 7.5 q8 7.5 8 18.5 l0 100 q0 10 -8 18 q-8 8 -19 8 q-11 0 -18.5 -8 q-7.5 -8 -7.5 -18 l0 -73 l-592 0 l0 -53 l618 0 ZM218 -147 q-30 0 -51.5 20.5 q-21.5 20.5 -23.5 50.5 q0 0 0.5 1 q0.5 1 0.5 1 q0 3 0 6 q1 29 22.5 49.5 q21.5 20.5 51.5 20.5 l18 0 l0 798 l-18 0 q-53 0 -90 -37.5 q-37 -37.5 -37 -89.5 q0 -1 0 -2 q0 -1 0 -1 q-1 -655 0 -738 q0 -1 -0.5 -2.5 q-0.5 -1.5 -0.5 -2.5 q0 -50 35 -86.5 q35 -36.5 85 -40.5 q3 0 4 0 l22 0 l0 53 l-18 0 Z" /><glyph glyph-name="home" unicode="&#xe6bb;" d="M982 492 l-409 320 q-26 21 -62 21 q-36 0 -62 -21 l-406 -321 q-10 -8 -11.5 -21 q-1.5 -13 6.5 -23.5 q8 -10.5 21 -12 q13 -1.5 24 6.5 l13 11 l0 -388 q0 -40 34 -68 q34 -28 74 -28 l640 0 q38 0 61 26.5 q23 26.5 23 69.5 l0 389 l14 -12 q9 -7 20 -7 q16 0 25 13 q9 10 7 23 q-2 13 -12 22 ZM608 99 l0 -67 l-192 0 l0 179 q0 31 25 54 q25 23 71 23 q46 0 71 -23 q25 -23 25 -54 l0 -112 Z" /><glyph glyph-name="share" unicode="&#xe618;" d="M0 812 l0 0 l0 0 ZM864 108 q-68 0 -115 -49 l-431 216 q2 12 2 25 q0 13 -2 25 l431 216 q47 -49 115 -49 q66 0 113 47 q47 47 47 113 q0 66 -47 113 q-47 47 -113 47 q-66 0 -113 -47 q-47 -47 -47 -113 q0 -13 2 -25 l-431 -216 q-47 49 -115 49 q-66 0 -113 -47 q-47 -47 -47 -113 q0 -66 47 -113 q47 -47 113 -47 q68 0 115 49 l431 -216 q-2 -12 -2 -25 q0 -66 47 -113 q47 -47 113 -47 q66 0 113 47 q47 47 47 113 q0 66 -47 113 q-47 47 -113 47 Z" /><glyph glyph-name="back" unicode="&#xe625;" d="M321 248 q-25 0 -40 19 q-14 17 -12 38 q2 21 19 35 l327 267 q16 14 37.5 12 q21.5 -2 35 -19 q13.5 -17 11.5 -38 q-2 -21 -19 -35 l-327 -267 q-14 -12 -32 -12 ZM647 -19 q-18 0 -32 12 l-327 267 q-17 14 -19 35 q-2 21 11.5 37.5 q13.5 16.5 35 19 q21.5 2.5 37.5 -11.5 l327 -267 q17 -14 19 -35 q2 -21 -12 -38 q-15 -19 -40 -19 Z" /><glyph glyph-name="qq" unicode="&#xe62d;" d="M200 344 l-2 6 l-1 6 l-1 4 l0 5 l0 5 l0 5 l1 6 l2 7 l2 6 l3 8 l4 8 l5 7 l0 6 l1 5 l1 7 l2 7 l2 9 l2 4 l2 3 l2 4 l3 3 l0 5 l0 7 l0 7 l2 10 l1 11 l3 14 l4 14 l3 8 l3 9 l3 8 l4 8 l4 9 l4 9 l6 9 l6 10 l3 5 l3 4 l7 10 l7 10 l8 10 l8 10 l10 10 l9 10 l12 10 l7 7 l9 7 l10 6 l10 6 l9 5 l11 5 l11 5 l12 4 l11 4 l12 4 l12 2 l13 3 l13 2 l13 2 l13 1 l14 1 l13 0 l13 0 l14 0 l14 -1 l13 -2 l14 -2 l13 -3 l13 -3 l13 -3 l14 -4 l13 -4 l12 -5 l13 -6 l12 -6 l12 -6 l11 -8 l10 -6 l4 -4 l5 -3 l9 -8 l8 -7 l7 -8 l8 -8 l6 -9 l7 -8 l5 -9 l5 -8 l6 -10 l4 -8 l8 -17 l4 -9 l3 -9 l3 -9 l2 -8 l2 -8 l2 -8 l5 -16 l2 -13 l2 -13 l1 -10 l3 -16 l0 -3 l2 -3 l5 -8 l3 -6 l3 -5 l4 -7 l3 -7 l2 -8 l3 -8 l1 -9 l1 -4 l1 -5 l0 -5 l-1 -4 l0 -6 l-1 -5 l-3 -11 l-2 -5 l-2 -6 l0 -2 l1 -1 l2 -5 l12 -17 l10 -14 l4 -9 l6 -9 l6 -11 l6 -11 l6 -13 l7 -15 l4 -8 l3 -9 l3 -9 l3 -8 l3 -9 l2 -8 l3 -16 l2 -16 l2 -14 l0 -8 l0 -7 l0 -6 l-1 -7 l-2 -12 l-2 -11 l-3 -10 l-1 -5 l-3 -4 l-2 -4 l-2 -4 l-3 -3 l-2 -3 l-3 -3 l-3 -2 l-3 -2 l-3 -1 l-2 -1 l-2 0 l-2 0 l-2 1 l-5 2 l-2 1 l-2 2 l-3 2 l-2 3 l-4 4 l-5 6 l-3 6 l-4 6 l-4 6 l-5 10 l-5 11 l-1 1 l-1 0 l-2 -2 l-2 -3 l-2 -4 l-4 -10 l-6 -16 l-7 -18 l-6 -9 l-6 -10 l-7 -10 l-7 -11 l-4 -5 l-5 -5 l-10 -10 l1 -1 l1 -2 l5 -3 l23 -10 l9 -6 l9 -5 l10 -7 l8 -7 l4 -3 l3 -3 l3 -5 l2 -4 l1 -4 l2 -4 l1 -4 l1 -5 l-1 -3 l0 -3 l-1 -3 l-2 -3 l0 -2 l-2 -3 l-4 -5 l-3 -5 l-3 -3 l-3 -2 l-6 -5 l-7 -4 l-7 -4 l-8 -3 l-9 -3 l-5 -2 l-4 -1 l-10 -3 l-11 -2 l-10 -2 l-12 -2 l-12 0 l-12 -2 l-12 0 l-13 0 l-13 0 l-14 1 l-12 1 l-14 2 l-14 1 l-14 2 l-14 4 l-13 3 l-14 3 l-14 5 l-13 4 l-7 3 l-7 2 l-4 2 l-4 0 l-5 0 l-6 0 l-13 1 l-7 1 l-8 1 l-6 -5 l-7 -5 l-10 -5 l-11 -6 l-7 -3 l-7 -3 l-16 -6 l-8 -2 l-9 -3 l-13 -2 l-7 -1 l-8 0 l-9 -1 l-10 -1 l-9 0 l-10 0 l-22 0 l-22 1 l-23 2 l-11 2 l-11 1 l-10 2 l-11 2 l-10 3 l-10 2 l-9 4 l-8 3 l-8 4 l-7 4 l-6 5 l-3 2 l-3 3 l-2 3 l-2 3 l-2 3 l-1 3 l-2 6 l-1 3 l-1 4 l0 3 l1 4 l0 3 l1 4 l0 2 l0 6 l0 4 l2 4 l1 5 l3 5 l2 2 l1 3 l5 5 l3 2 l3 2 l3 3 l5 1 l3 2 l5 3 l5 1 l6 2 l6 1 l6 1 l6 1 l8 1 l2 0 l0 0 l1 1 l0 1 l-1 2 l-4 2 l-10 8 l-7 6 l-7 6 l-8 8 l-8 10 l-10 10 l-3 6 l-5 6 l-4 7 l-3 8 l-5 7 l-3 9 l-4 8 l-4 9 l-2 9 l-3 11 l-1 1 l-1 0 l0 1 l-1 0 l-1 -1 l-1 -1 l-1 -2 l-1 -2 l-1 -2 l-1 -3 l-5 -8 l-2 -5 l-4 -4 l-4 -5 l-4 -6 l-5 -5 l-5 -5 l-5 -5 l-6 -3 l-6 -4 l-6 -2 l-7 -2 l-6 -1 l-1 0 l-1 0 l-1 1 l-2 2 l-2 2 l-2 6 l-2 4 l-2 4 l-1 6 l-1 5 l-2 11 l-1 7 l0 7 l0 15 l1 17 l1 8 l2 9 l1 10 l3 8 l3 10 l3 10 l4 10 l3 10 l6 10 l4 10 l6 10 l7 11 l7 10 l7 11 l7 7 l7 9 l9 8 l3 4 l5 5 l7 6 l7 6 l11 10 l9 6 l3 2 Z" /><glyph glyph-name="weibo" unicode="&#xe619;" d="M730 320 q0 0 15 35 q29 92 -54 107 q-67 12 -205 -33 q34 29 33 73 q-1 44 -30 65 q-30 19 -69 18.5 q-39 -0.5 -84 -22.5 q-45 -22 -90 -54.5 q-45 -32.5 -86 -76.5 q-41 -44 -72.5 -89.5 q-31.5 -45.5 -50.5 -93 q-19 -47.5 -19 -86.5 q0 -44 24.5 -89 q24.5 -45 71 -84 q46.5 -39 126.5 -64 q80 -25 180 -25 q101 0 183 21 q82 21 132.5 53 q50.5 32 85 71.5 q34.5 39.5 48 75 q13.5 35.5 13.5 65.5 q0 37 -15.5 64 q-15.5 27 -38 39.5 q-22.5 12.5 -44.5 20 q-22 7.5 -38 8.5 l-16 1 ZM636.5 29 q-81.5 -67 -204.5 -78.5 q-123 -11.5 -215.5 39.5 q-92.5 51 -100 134.5 q-7.5 83.5 73.5 150.5 q81 67 204 78.5 q123 11.5 215.5 -39.5 q92.5 -51 100.5 -134.5 q8 -83.5 -73.5 -150.5 ZM494.5 252 q-53.5 32 -120.5 21 q-67 -11 -107 -59.5 q-40 -48.5 -30.5 -105.5 q9.5 -57 63.5 -89.5 q54 -32.5 120.5 -21 q66.5 11.5 107 60 q40.5 48.5 30.5 105.5 q-10 57 -63.5 89 ZM391.5 80 q-11.5 -18 -33 -24 q-21.5 -6 -40.5 4 q-19 10 -24.5 29.5 q-5.5 19.5 6 37.5 q11.5 18 33 24 q21.5 6 40.5 -3.5 q19 -9.5 24.5 -29.5 q5.5 -20 -6 -38 ZM452 148.5 q-8 -7.5 -19 -7.5 q-11 0 -19 7.5 q-8 7.5 -8 18.5 q0 11 8 19 q8 8 19 8 q11 0 19 -8 q8 -8 8 -19 q0 -11 -8 -18.5 ZM951 604 q-44 57 -113 80.5 q-69 23.5 -153 11.5 q-14 -2 -23 -13.5 q-9 -11.5 -7 -25.5 q2 -14 13.5 -22.5 q11.5 -8.5 26.5 -6.5 q134 19 201 -66 q30 -39 38 -89 q8 -50 -10 -93 q-5 -13 0.5 -26 q5.5 -13 18.5 -19 q7 -2 13 -2 q24 0 32 21 q25 60 14.5 129 q-10.5 69 -51.5 121 ZM718 570 q-14 -2 -22.5 -13.5 q-8.5 -11.5 -6.5 -25.5 q2 -14 13.5 -22.5 q11.5 -8.5 25.5 -6.5 q49 7 72 -22 q10 -13 12.5 -30 q2.5 -17 -3.5 -32 q-5 -13 0.5 -26 q5.5 -13 18.5 -19 q7 -2 13 -2 q24 0 33 21 q12 32 7 67.5 q-5 35.5 -27 62.5 q-47 61 -136 48 Z" /><glyph glyph-name="segmentfault" unicode="&#xe603;" d="M123 145 q71 -64 144 -64 q32 0 56 15 q24 15 24 46 q0 14 -6 24.5 q-6 10.5 -19.5 19 q-13.5 8.5 -25.5 14 q-12 5.5 -35 14 q-23 8.5 -37 14.5 q-65 28 -99.5 64 q-34.5 36 -34.5 100 q0 87 61 130 q61 43 158 43 q113 0 188 -48 l0 -14 l-48 -93 q-55 41 -127 41 q-33 0 -52 -13.5 q-19 -13.5 -19 -38.5 q0 -11 5 -20 q5 -9 11 -15 q6 -6 19 -12.5 q13 -6.5 22.5 -10 q9.5 -3.5 29 -10.5 q19.5 -7 30.5 -11 q74 -28 109 -64 q35 -36 35 -103 q0 -90 -62.5 -135 q-62.5 -45 -165.5 -45 q-119 0 -211 70 l0 14 l50 88 ZM656 -26 q0 113 3 450 q-32 -1 -75 -1 l1 121 q42 0 73 -1 q0 3 -1 54.5 q-1 51.5 -1 53.5 q0 96 49.5 140.5 q49.5 44.5 132.5 44.5 q72 0 135 -26 l0 -18 l-35 -96 q-29 17 -60 17 q-27 0 -41 -17.5 q-14 -17.5 -14 -62.5 q0 -13 1 -51.5 q1 -38.5 1 -38.5 q35 1 113 1 l-1 -121 q-78 0 -114 1 q3 -112 3 -450 l-170 0 l0 0 Z" /><glyph glyph-name="sort" unicode="&#xe700;" d="M384 576 l512 0 q13 0 22.5 9.5 q9.5 9.5 9.5 22.5 q0 13 -9.5 22.5 q-9.5 9.5 -22.5 9.5 l-512 0 q-13 0 -22.5 -9.5 q-9.5 -9.5 -9.5 -22.5 q0 -13 9.5 -22.5 q9.5 -9.5 22.5 -9.5 ZM896 416 l-512 0 q-13 0 -22.5 -9.5 q-9.5 -9.5 -9.5 -22.5 q0 -13 9.5 -22.5 q9.5 -9.5 22.5 -9.5 l512 0 q13 0 22.5 9.5 q9.5 9.5 9.5 22.5 q0 13 -9.5 22.5 q-9.5 9.5 -22.5 9.5 ZM896 192 l-512 0 q-13 0 -22.5 -9.5 q-9.5 -9.5 -9.5 -22.5 q0 -13 9.5 -22.5 q9.5 -9.5 22.5 -9.5 l512 0 q13 0 22.5 9.5 q9.5 9.5 9.5 22.5 q0 13 -9.5 22.5 q-9.5 9.5 -22.5 9.5 ZM192 608 l0 0 ZM147 563 q-19 19 -19 45 q0 26 19 45 q19 19 45 19 q26 0 45 -19 q19 -19 19 -45 q0 -26 -19 -45 q-19 -19 -45 -19 q-26 0 -45 19 ZM192 384 l0 0 ZM147 339 q-19 19 -19 45 q0 26 19 45 q19 19 45 19 q26 0 45 -19 q19 -19 19 -45 q0 -26 -19 -45 q-19 -19 -45 -19 q-26 0 -45 19 ZM192 160 l0 0 ZM147 115 q-19 19 -19 45 q0 26 19 45 q19 19 45 19 q26 0 45 -19 q19 -19 19 -45 q0 -26 -19 -45 q-19 -19 -45 -19 q-26 0 -45 19 Z" /><glyph glyph-name="jianshu" unicode="&#xe613;" d="M282 883 l93 -61 q8 -7 -3 -14 q-18 -8 -40 -29 l-14 -18 l122 7 l46 50 l65 -53 l3 -7 q-3 -4 -7 -4 l-157 -7 q46 -29 46 -61 q-3 -29 -32 -36 q-29 -3 -29 15 q-3 60 -18 78 l-60 -3 q-86 -79 -183 -161 q-7 -8 -7 7 q122 154 175 297 ZM293 482 l-7 -354 q-4 -50 -54 -104 q-14 -11 -18 0 l8 261 l0 143 l-4 129 l82 -32 q4 0 7 -4 l-3 -7 l-11 -32 ZM325 654 q104 -32 104 -57 q-7 -43 -32 -58 q-18 -10 -29 11 q-28 79 -50 97 q-3 10 7 7 ZM433 228 q-11 -32 -40 -54 q-14 -10 -18 8 l0 236 l0 71 q-1 6 0.5 6.5 q1.5 0.5 7.5 -2.5 l50 -32 l164 7 l29 39 l71 -39 q4 0 4 -7 l-22 -33 l4 -153 q-4 -36 -43 -86 q-18 -15 -28 0 q-4 10 -15 25 q-7 14 -11 21 l-153 -7 ZM601 450 l-172 -4 l0 -89 l147 7 q7 0 7 -7 q0 -7 -11 -7 l-143 -7 l4 -101 l168 8 l0 200 ZM615 564 q-68 0 -111 -10 l-25 25 l279 14 l36 39 l75 -46 q0 -4 4 -4 q3 -3 -4 -7 l-29 -36 l4 -204 l4 -143 q7 -100 -108 -175 q-7 -4 -10.5 0 q-3.5 4 0.5 11 q-4 50 -36 75 q-4 3 -4 7 q0 4 4 4 q37 -2 54 7 q17 9 14 28 l-4 422 l-143 -7 ZM615 890 l90 -54 q7 -3 -4 -11 q-22 -7 -36 -28 q-3 -4 -7 -11 q-7 -11 -14 -18 l154 7 l46 50 l64 -53 q8 -7 0 -7 l-196 -11 q71 -39 71 -72 q-7 -32 -43 -50 q-28 -3 -28 18 q-4 75 -25 104 l-58 -4 q-10 -10 -32 -35 q-43 -54 -75 -86 q-7 -4 -10.5 -4 q-3.5 0 -0.5 7 q72 151 104 258 Z" /><glyph glyph-name="circle-left" unicode="&#xe71f;" d="M828.5 67.5 q-131.5 -131.5 -316.5 -131.5 q-185 0 -316.5 131.5 q-131.5 131.5 -131.5 316.5 q0 185 131.5 316.5 q131.5 131.5 316.5 131.5 q185 0 316.5 -131.5 q131.5 -131.5 131.5 -316.5 q0 -185 -131.5 -316.5 ZM783.5 655.5 q-112.5 112.5 -271.5 112.5 q-159 0 -271.5 -112.5 q-112.5 -112.5 -112.5 -271.5 q0 -159 112.5 -271.5 q112.5 -112.5 271.5 -112.5 q159 0 271.5 112.5 q112.5 112.5 112.5 271.5 q0 159 -112.5 271.5 ZM290 372 l1 -1 q2 -6 6 -10 l0 0 l0 0 l159 -159 q10 -10 23 -10 q13 0 22.5 9.5 q9.5 9.5 9.5 22.5 q0 13 -9 23 l-104 103 l305 0 q14 0 23 9.5 q9 9.5 9 23 q0 13.5 -9 22.5 q-9 9 -23 9 l-306 0 l106 105 q9 10 9 23 q0 13 -9 22.5 q-9 9.5 -23 9.5 q-13 0 -22 -9 l-161 -159 q-15 -15 -7 -34 Z" /><glyph glyph-name="circle-right" unicode="&#xe720;" d="M828.5 67.5 q-131.5 -131.5 -316.5 -131.5 q-185 0 -316.5 131.5 q-131.5 131.5 -131.5 316.5 q0 185 131.5 316.5 q131.5 131.5 316.5 131.5 q185 0 316.5 -131.5 q131.5 -131.5 131.5 -316.5 q0 -185 -131.5 -316.5 ZM783.5 655.5 q-112.5 112.5 -271.5 112.5 q-159 0 -271.5 -112.5 q-112.5 -112.5 -112.5 -271.5 q0 -159 112.5 -271.5 q112.5 -112.5 271.5 -112.5 q159 0 271.5 112.5 q112.5 112.5 112.5 271.5 q0 159 -112.5 271.5 ZM733 395 l0 0 q-3 6 -7 10 l0 0 l0 0 l-159 160 q-9 9 -22.5 9 q-13.5 0 -23 -9 q-9.5 -9 -9.5 -22.5 q0 -13.5 10 -22.5 l103 -104 l-305 0 q-13 0 -22.5 -9.5 q-9.5 -9.5 -9.5 -22.5 q0 -13 9.5 -22.5 q9.5 -9.5 22.5 -9.5 l307 0 l-106 -105 q-10 -9 -10 -22.5 q0 -13.5 9.5 -23 q9.5 -9.5 22.5 -9.5 q13 0 23 10 l160 158 q15 15 7 35 Z" /><glyph glyph-name="loading" unicode="&#xe614;" d="M421.5 677.5 q-37.5 37.5 -37.5 90.5 q0 53 37.5 90.5 q37.5 37.5 90.5 37.5 q53 0 90.5 -37.5 q37.5 -37.5 37.5 -90.5 q0 -53 -37.5 -90.5 q-37.5 -37.5 -90.5 -37.5 q-53 0 -90.5 37.5 ZM693.5 565.5 q-37.5 37.5 -37.5 90.5 q0 53 37.5 90.5 q37.5 37.5 90.5 37.5 q53 0 90.5 -37.5 q37.5 -37.5 37.5 -90.5 q0 -53 -37.5 -90.5 q-37.5 -37.5 -90.5 -37.5 q-53 0 -90.5 37.5 ZM850.5 338.5 q-18.5 18.5 -18.5 45.5 q0 27 18.5 45.5 q18.5 18.5 45.5 18.5 q27 0 45.5 -18.5 q18.5 -18.5 18.5 -45.5 q0 -27 -18.5 -45.5 q-18.5 -18.5 -45.5 -18.5 q-27 0 -45.5 18.5 ZM738.5 67 q-18.5 19 -18.5 45.5 q0 26.5 18.5 45 q18.5 18.5 45 18.5 q26.5 0 45.5 -18.5 q19 -18.5 19 -45 q0 -26.5 -19 -45.5 q-19 -19 -45.5 -19 q-26.5 0 -45 19 ZM448 0 l0 0 q0 27 18.5 45.5 q18.5 18.5 45.5 18.5 q27 0 45.5 -18.5 q18.5 -18.5 18.5 -45.5 l0 0 q0 -27 -18.5 -45.5 q-18.5 -18.5 -45.5 -18.5 q-27 0 -45.5 18.5 q-18.5 18.5 -18.5 45.5 ZM176 112 l0 0 q0 27 19 45.5 q19 18.5 45.5 18.5 q26.5 0 45 -18.5 q18.5 -18.5 18.5 -45.5 l0 0 q0 -26 -18.5 -45 q-18.5 -19 -45 -19 q-26.5 0 -45.5 19 q-19 19 -19 45 ZM144 656 l0 0 q0 39 28.5 67.5 q28.5 28.5 68 28.5 q39.5 0 67.5 -28.5 q28 -28.5 28 -67.5 l0 0 q0 -40 -28 -68 q-28 -28 -67.5 -28 q-39.5 0 -68 28 q-28.5 28 -28.5 68 ZM77 333 q-21 21 -21 51 q0 30 21 51 q21 21 51 21 q30 0 51 -21 q21 -21 21 -51 q0 -30 -21 -51 q-21 -21 -51 -21 q-30 0 -51 21 Z" /><glyph glyph-name="acfun" unicode="&#xe604;" d="M521 896 l-521 -859 l261 -165 l53 185 l414 31 l107 -205 l257 154 l-571 859 ZM415 254 l98 217 l111 -217 l-209 0 Z" /><glyph glyph-name="close" unicode="&#xe60c;" d="M512 217 l-321 -320 l-82 82 l320 321 l-320 321 l82 82 l321 -320 l321 320 l82 -82 l-320 -321 l320 -321 l-82 -82 l-321 320 Z" /><glyph glyph-name="tumblr" unicode="&#xe6b0;" d="M843 796 l-662 0 q-68 0 -116.5 -48.5 q-48.5 -48.5 -48.5 -116.5 l0 -662 q0 -68 48.5 -116.5 q48.5 -48.5 116.5 -48.5 l662 0 q68 0 116.5 48.5 q48.5 48.5 48.5 116.5 l0 662 q0 68 -48.5 116.5 q-48.5 48.5 -116.5 48.5 ZM725 -3 q-44 -21 -80 -29 q-35 -8 -77 -8 q-37 0 -73 12 q-36 12 -61.5 33.5 q-25.5 21.5 -35.5 46.5 q-10 25 -10 72 l0 240 l-93 0 l0 97 q53 17 77 37 q29 25 46.5 59 q17.5 34 23.5 87 l98 0 l0 -158 l158 0 l0 -122 l-158 0 l0 -176 q0 -64 3 -74 q7 -18 26 -29 q23 -14 52 -14 q52 0 104 34 l0 -108 l0 0 Z" /><glyph glyph-name="calendar" unicode="&#xe667;" d="M870 763 l-37 0 l0 -182 q0 -29 -20.5 -49.5 q-20.5 -20.5 -49.5 -20.5 q-29 0 -49.5 20.5 q-20.5 20.5 -20.5 49.5 l0 182 l-361 0 l0 -181 q0 -29 -20.5 -49.5 q-20.5 -20.5 -49.5 -20.5 q-29 0 -49.5 20.5 q-20.5 20.5 -20.5 49.5 l0 181 l-38 0 q-37 0 -63.5 -26.5 q-26.5 -26.5 -26.5 -63.5 l0 -196 l896 0 l0 196 q0 37 -26.5 63.5 q-26.5 26.5 -63.5 26.5 ZM315 601 q0 -22 -15.5 -38 q-15.5 -16 -37.5 -16 l0 0 q-22 0 -38 16 q-16 16 -16 38 l0 176 q0 23 16 38.5 q16 15.5 38 15.5 l0 0 q22 0 37.5 -15.5 q15.5 -15.5 15.5 -38.5 l0 -176 ZM818 601 q0 -22 -15.5 -38 q-15.5 -16 -38.5 -16 l0 0 q-22 0 -37.5 16 q-15.5 16 -15.5 38 l0 176 q0 23 15.5 38.5 q15.5 15.5 37.5 15.5 l0 0 q23 0 38.5 -15.5 q15.5 -15.5 15.5 -38.5 l0 -176 ZM908 439 l0 -358 q0 -38 -26.5 -64 q-26.5 -26 -63.5 -26 l-613 0 q-37 0 -63 26 q-26 26 -26 64 l0 258 l0 93 l0 7 l-52 0 l0 -412 q0 -37 26.5 -63.5 q26.5 -26.5 63.5 -26.5 l716 0 q37 0 63.5 26.5 q26.5 26.5 26.5 63.5 l0 412 l-52 0 ZM537 179 l71 0 q9 -41 42 -41 q20 0 31 12 q11 12 11 34 q0 40 -42 41 l-22 0 l0 44 l10 0 q25 1 34.5 11 q9.5 10 9.5 31 q0 14 -9.5 22.5 q-9.5 8.5 -24.5 8.5 q-13 0 -21 -4 q-8 -4 -10.5 -8.5 q-2.5 -4.5 -6.5 -15.5 l-66 -1 q23 77 106 78 q101 -3 105 -82 q0 -38 -45 -58 q57 -19 57 -69 q-4 -83 -117 -87 q-47 0 -76 22 q-29 22 -37 62 ZM489 161 l0 -62 l-227 0 l0 40 q39 61 95 97 q57 38 57 70 q0 27 -34 27 q-41 -1 -41 -36 l-72 0 q3 48 36.5 71 q33.5 23 82.5 23 q99 -4 106 -84 q4 -57 -73 -105 q-24 -14 -31.5 -19.5 q-7.5 -5.5 -21.5 -21.5 l123 0 l0 0 Z" /><glyph glyph-name="rss" unicode="&#xe877;" d="M297 122 q32 -32 32 -78 q0 -46 -32 -78 q-32 -32 -77.5 -32 q-45.5 0 -77.5 32 q-32 32 -32 78 q0 46 32 78 q32 32 77.5 32 q45.5 0 77.5 -32 ZM622 -26 q1 -16 -10 -28 q-10 -12 -27 -12 l-77 0 q-14 0 -24.5 9.5 q-10.5 9.5 -11.5 23.5 q-13 131 -105.5 224 q-92.5 93 -223.5 106 q-14 1 -23.5 11 q-9.5 10 -9.5 25 l0 77 q0 16 12 27 q9 9 24 9 l3 0 q91 -7 174.5 -45.5 q83.5 -38.5 148.5 -103.5 q65 -65 103.5 -148.5 q38.5 -83.5 46.5 -174.5 l0 0 ZM914 -27 q1 -16 -10 -27 q-10 -12 -26 -12 l-82 0 q-15 0 -25.5 10 q-10.5 10 -11.5 25 q-6 122 -57 233 q-51 111 -132.5 192 q-81.5 81 -192 132 q-110.5 51 -233.5 59 q-14 0 -24 10.5 q-10 10.5 -10 25.5 l0 81 q0 16 11 27 q10 10 25 10 l2 0 q150 -8 286.5 -69 q136.5 -61 243.5 -168 q106 -106 167.5 -243 q61.5 -137 68.5 -286 l0 0 Z" /><glyph glyph-name="price-tags" unicode="&#xe6f9;" d="M234.5 588.5 q21.5 21.5 21.5 51.5 q0 30 -21.5 51.5 q-21.5 21.5 -51.5 21.5 q-30 0 -51.5 -21.5 q-21.5 -21.5 -21.5 -51.5 q0 -30 21.5 -51.5 q21.5 -21.5 51.5 -21.5 q30 0 51.5 21.5 ZM866 311 q0 -30 -21 -52 l-281 -281 q-22 -21 -52 -21 q-30 0 -51 21 l-409 409 q-22 22 -37 58.5 q-15 36.5 -15 66.5 l0 238 q0 29 21.5 51 q21.5 22 51.5 22 l238 0 q30 0 66.5 -15 q36.5 -15 58.5 -37 l409 -408 q21 -22 21 -52 l0 0 Z" /><glyph glyph-name="quo-left" unicode="&#xe7f5;" d="M826 386 l-128 0 q0 79 56.5 135.5 q56.5 56.5 135.5 56.5 q27 0 45.5 18.5 q18.5 18.5 18.5 45 q0 26.5 -18.5 45.5 q-18.5 19 -45.5 19 q-87 0 -160.5 -43 q-73.5 -43 -116.5 -116.5 q-43 -73.5 -43 -160.5 l0 -256 q0 -53 37.5 -90.5 q37.5 -37.5 90.5 -37.5 l128 0 q53 0 90.5 37.5 q37.5 37.5 37.5 90.5 l0 128 q0 53 -37.5 90.5 q-37.5 37.5 -90.5 37.5 ZM378 578 q27 0 45.5 18.5 q18.5 18.5 18.5 45 q0 26.5 -18.5 45.5 q-18.5 19 -45.5 19 q-86 0 -160 -43 q-74 -43 -117 -116.5 q-43 -73.5 -43 -160.5 l0 -256 q0 -53 37.5 -90.5 q37.5 -37.5 90.5 -37.5 l128 0 q53 0 90.5 37.5 q37.5 37.5 37.5 90.5 l0 128 q0 53 -37.5 90.5 q-37.5 37.5 -90.5 37.5 l-128 0 q0 79 56.5 135.5 q56.5 56.5 135.5 56.5 Z" /><glyph glyph-name="quo-right" unicode="&#xe7f6;" d="M352 736 l-128 0 q-53 0 -90.5 -37.5 q-37.5 -37.5 -37.5 -90.5 l0 -128 q0 -53 37.5 -90.5 q37.5 -37.5 90.5 -37.5 l128 0 q0 -79 -56 -135.5 q-56 -56.5 -136 -56.5 q-27 0 -45.5 -18.5 q-18.5 -18.5 -18.5 -45.5 q0 -27 18.5 -45.5 q18.5 -18.5 45.5 -18.5 q133 0 226.5 93.5 q93.5 93.5 93.5 226.5 l0 256 q0 53 -37.5 90.5 q-37.5 37.5 -90.5 37.5 ZM864 736 l-128 0 q-53 0 -90.5 -37.5 q-37.5 -37.5 -37.5 -90.5 l0 -128 q0 -53 37.5 -90.5 q37.5 -37.5 90.5 -37.5 l128 0 q0 -79 -56.5 -135.5 q-56.5 -56.5 -135.5 -56.5 q-27 0 -45.5 -18.5 q-18.5 -18.5 -18.5 -45.5 q0 -27 18.5 -45.5 q18.5 -18.5 45.5 -18.5 q133 0 226.5 93.5 q93.5 93.5 93.5 226.5 l0 256 q0 53 -37.5 90.5 q-37.5 37.5 -90.5 37.5 Z" /><glyph glyph-name="back1" unicode="&#xe64e;" d="M222 245 q10 -13 25 -21 l7 -6 q17 -14 41 -14 q24 0 41 14 q24 21 14 49 q3 11 3 20 l0 55 l331 0 q71 0 121 -45.5 q50 -45.5 50 -109.5 q0 -48 -29.5 -86.5 q-29.5 -38.5 -76.5 -56.5 l5 -4 q-4 -6 -4 -12 q0 -11 9 -19 q9 -8 21 -8 q21 0 29 18 q69 29 110.5 84.5 q41.5 55.5 41.5 122.5 q0 96 -80.5 163.5 q-80.5 67.5 -194.5 67.5 l-333 0 l0 54 q0 9 -3 19 q12 30 -14 51 q-17 14 -41 14 q-24 0 -41 -14 l-9 -8 q-12 -7 -20 -17 l-131 -112 q-9 -4 -14 -8 q-18 -15 -17 -37 q-1 -21 17 -36 q5 -5 14 -9 l128 -109 l0 0 ZM208 403 l0 -7 l-4 3 l4 4 l0 0 ZM208 403 l0 0 Z" /><glyph glyph-name="github" unicode="&#xe735;" d="M1 371 q0 -165 95.5 -297.5 q95.5 -132.5 246.5 -184.5 q6 -2 10 -2 q4 0 6.5 1.5 q2.5 1.5 4 3 q1.5 1.5 2 5 q0.5 3.5 0.5 5.5 q0 2 0 6.5 q0 4.5 0 5.5 l0 88 q-37 -4 -66 0.5 q-29 4.5 -45 14 q-16 9.5 -28.5 23.5 q-12.5 14 -17.5 25.5 q-5 11.5 -9 23.5 q-4 12 -6 15 q-8 14 -26 27 q-18 13 -27 20.5 q-9 7.5 -2 14.5 q50 26 113 -66 q34 -51 118 -30 q10 40 40 70 q-115 20 -171.5 85 q-56.5 65 -55.5 158 q0 87 55 150 q-22 66 5 137 q30 3 66 -10.5 q36 -13.5 50 -23 q14 -9.5 25 -18.5 q58 16 129 16 q70 0 129 -16 q13 10 28.5 19.5 q15.5 9.5 49 21.5 q33.5 12 61.5 9 q26 -71 6 -134 q56 -64 56 -152 q0 -92 -56.5 -157 q-56.5 -65 -172.5 -86 q44 -42 44 -104 l0 -128 q0 -1 0 -3 q1 -6 1.5 -9 q0.5 -3 4.5 -6 q4 -3 11 -3 q154 52 251 185 q97 133 97 300 q0 104 -40.5 198.5 q-40.5 94.5 -109 162.5 q-68.5 68 -163 108.5 q-94.5 40.5 -198.5 40.5 q-104 0 -198.5 -40 q-94.5 -40 -163 -108.5 q-68.5 -68.5 -109 -163 q-40.5 -94.5 -40.5 -198.5 Z" /><glyph glyph-name="film" unicode="&#xe7b7;" d="M0 684 l0 -768 l1024 0 l0 768 l-1024 0 ZM192 -20 l-128 0 l0 128 l128 0 l0 -128 ZM192 236 l-128 0 l0 128 l128 0 l0 -128 ZM192 492 l-128 0 l0 128 l128 0 l0 -128 ZM768 -20 l-512 0 l0 640 l512 0 l0 -640 ZM960 -20 l-128 0 l0 128 l128 0 l0 -128 ZM960 236 l-128 0 l0 128 l128 0 l0 -128 ZM960 492 l-128 0 l0 128 l128 0 l0 -128 ZM384 492 l0 -384 l256 192 l-256 192 Z" /><glyph glyph-name="weixin" unicode="&#xe61f;" d="M331 633 q0 23 -14 37.5 q-14 14.5 -38 14.5 q-24 0 -43 -15 q-19 -15 -19 -37 q0 -23 19 -37.5 q19 -14.5 43 -14.5 q24 0 38 14 q14 14 14 38 l0 0 ZM756 343 q0 16 -14.5 28.5 q-14.5 12.5 -37.5 12.5 q-15 0 -28 -13 q-13 -13 -13 -28 q0 -16 13 -29 q13 -13 28 -13 q23 0 37.5 12.5 q14.5 12.5 14.5 29.5 ZM621 633 q0 23 -14 37.5 q-14 14.5 -37 14.5 q-25 0 -44 -15 q-19 -15 -19 -37 q0 -23 19 -37.5 q19 -14.5 44 -14.5 q23 0 37 14 q14 14 14 38 l0 0 ZM984 343 q0 16 -15 28.5 q-15 12.5 -37 12.5 q-15 0 -28 -13 q-13 -13 -13 -28 q0 -16 13 -29 q13 -13 28 -13 q22 0 37 12.5 q15 12.5 15 29.5 ZM832 570 q-18 2 -40 2 q-97 0 -178 -44 q-81 -44 -127.5 -119 q-46.5 -75 -46.5 -164 q0 -45 13 -87 q-20 -2 -39 -2 q-15 0 -28.5 1 q-13.5 1 -31 3.5 q-17.5 2.5 -25.5 4 q-8 1.5 -31.5 6 q-23.5 4.5 -28.5 6.5 l-144 -73 l41 125 q-166 116 -166 280 q0 96 55.5 177 q55.5 81 151 128 q95.5 47 207.5 47 q101 0 190.5 -38 q89.5 -38 149.5 -104.5 q60 -66.5 78 -148.5 l0 0 ZM1170 249 q0 -67 -39 -127.5 q-39 -60.5 -106 -110.5 l32 -104 l-114 63 q-86 -21 -125 -21 q-96 0 -177 40 q-81 40 -128 109 q-47 69 -47 151 q0 82 46.5 151 q46.5 69 128 109.5 q81.5 40.5 177.5 40.5 q92 0 173.5 -40.5 q81.5 -40.5 130 -110 q48.5 -69.5 48.5 -150.5 l0 0 Z" /><glyph glyph-name="qzone" unicode="&#xe680;" d="M813 258 q12 -36 28 -85 q-210 20 -362 47 q-1 5 24 26.5 q25 21.5 63.5 50 q38.5 28.5 83 62 q44.5 33.5 82.5 62 q38 28.5 62.5 48.5 q24.5 20 22.5 24 q-86 14 -173.5 19.5 q-87.5 5.5 -150.5 3 q-63 -2.5 -113 -7.5 q-50 -5 -76 -10 l-25 -5 l375 -52 q-354 -237 -359 -259 q182 -33 550 -22 q83 -258 53 -272 q-20 -9 -63.5 7 q-43.5 16 -92.5 45 q-49 29 -95.5 59.5 q-46.5 30.5 -76.5 52.5 q-30 22 -30 23 q-3 -3 -9.5 -7.5 q-6.5 -4.5 -26 -18.5 q-19.5 -14 -38.5 -27 q-19 -13 -45.5 -31 q-26.5 -18 -50.5 -32.5 q-24 -14.5 -49 -29 q-25 -14.5 -44.5 -24 q-19.5 -9.5 -35.5 -14 q-16 -4.5 -23 -0.5 q-19 9 -23.5 50.5 q-4.5 41.5 3 94 q7.5 52.5 18 103 q10.5 50.5 19.5 85 q9 34.5 10 34.5 q-4 3 -9.5 7.5 q-5.5 4.5 -23 19 q-17.5 14.5 -34.5 29 q-17 14.5 -39.5 34.5 q-22.5 20 -42 38.5 q-19.5 18.5 -39 38.5 q-19.5 20 -32.5 36.5 q-13 16.5 -20 30.5 q-7 14 -4 23 q6 23 109 40 q103 17 185 23 q82 6 99 6 q5 12 12 32.5 q7 20.5 28.5 72.5 q21.5 52 40.5 92.5 q19 40.5 41.5 75.5 q22.5 35 38.5 39 q24 5 66 -69 q42 -74 72.5 -147 q30.5 -73 30.5 -77 q4 0 12 -1 q8 -1 32.5 -4 q24.5 -3 49 -6 q24.5 -3 57.5 -8 q33 -5 62 -9.5 q29 -4.5 59 -10 q30 -5.5 52.5 -11 q22.5 -5.5 38 -11 q15.5 -5.5 19.5 -10.5 q19 -24 -199 -199 q-60 -49 -94 -75 ZM951 164 q-42 -2 -106 -4 q0 3 -1.5 7 q-1.5 4 -2.5 6 q110 -9 110 -9 Z" /><glyph glyph-name="category" unicode="&#xe605;" d="M970 -35 l-941 0 q-13 0 -21 8 l0 0 q-8 9 -8 22 q0 13 8 21 l0 0 q8 9 21 9 l941 0 q20 0 27 -18 q2 -6 2 -12.5 q0 -6.5 -2 -11.5 q-7 -18 -27 -18 ZM704 193 l-675 0 q-12 0 -21 8 l0 0 q-8 9 -8 22 q0 13 8 21 l0 0 q8 9 21 9 l675 0 q20 0 27 -18 q2 -6 2 -12 q0 -6 -2 -12 q-7 -18 -27 -18 ZM27 495 l416 0 q11 0 19 -9 l0 0 q7 -9 7 -21 q0 -12 -7 -20 l0 -1 q-8 -9 -19 -9 l-416 0 q-11 0 -19 9 l-1 1 q-7 8 -7 20 q0 12 7 21 l1 0 q7 9 19 9 ZM27 714 l416 0 q11 0 19 -9 l0 0 q7 -9 7 -21 q0 -12 -7 -20 l0 0 q-8 -10 -19 -10 l-416 0 q-12 0 -19 10 l-1 0 q-7 8 -7 20 q0 12 7 21 l1 0 q7 9 19 9 ZM698 802 q14 1 29 1 q93 0 159 -66 q66 -66 66 -159 q0 -21 -4 -41 l-55 0 q5 20 5 41 q0 71 -50 121.5 q-50 50.5 -121 50.5 q-15 0 -29 -3 l0 55 l0 0 ZM859 396 l161 -277 q2 -4 3 -7 l0 0 q1 -4 1 -8 l0 0 q0 -12 -9 -21 q-9 -9 -22 -9 q-8 0 -14.5 4 q-6.5 4 -10.5 11 l0 0 l-162 278 l-10 -4 l1 1 q-34 -11 -70 -11 q-94 0 -159.5 66 q-65.5 66 -65.5 159 q0 93 66 159 q54 55 130 65 l0 -55 q-54 -9 -92 -48 q-51 -50 -51 -121 q0 -71 50.5 -121 q50.5 -50 121.5 -50 q71 0 121 50 q34 34 45 80 l55 0 q-13 -69 -62 -118 q-13 -13 -27 -23 Z" /><glyph glyph-name="douban" unicode="&#xe64c;" d="M823 822 l-621 0 q-56 0 -95.5 -40 q-39.5 -40 -39.5 -96 l0 -621 q0 -56 39.5 -95.5 q39.5 -39.5 95.5 -39.5 l621 0 q56 0 96 39.5 q40 39.5 40 95.5 l0 621 q0 56 -40 96 q-40 40 -96 40 ZM230 689 l587 0 l0 -71 l-587 0 l0 71 ZM770 571 l0 -281 l-493 0 l0 281 l493 0 ZM841 78 l-634 0 l0 71 l185 0 q-6 16 -14.5 33 q-8.5 17 -13 24 q-4.5 7 -20 30 q-15.5 23 -17.5 26 l65 26 q25 -37 69 -139 l124 0 q45 86 64 139 l71 -26 q-40 -91 -60 -113 l181 0 l0 -71 ZM348 501 l352 0 l0 -141 l-352 0 l0 141 Z" /><glyph glyph-name="roundleftfill" unicode="&#xe799;" d="M828.5 700.5 q-131.5 131.5 -316.5 131.5 q-185 0 -316.5 -131.5 q-131.5 -131.5 -131.5 -316.5 q0 -185 131.5 -316.5 q131.5 -131.5 316.5 -131.5 q185 0 316.5 131.5 q131.5 131.5 131.5 316.5 q0 185 -131.5 316.5 ZM566 248 q10 -9 10 -22.5 q0 -13.5 -9.5 -22.5 q-9.5 -9 -23 -9 q-13.5 0 -22.5 9 l-159 160 l0 0 l0 0 q-3 3 -6 8 q0 1 -0.5 1.5 q-0.5 0.5 -0.5 0.5 q-8 20 7 35 l160 158 q10 10 23 10 q13 0 22.5 -9.5 q9.5 -9.5 9.5 -23 q0 -13.5 -10 -22.5 l-137 -136 l136 -137 Z" /><glyph glyph-name="tuding" unicode="&#xe651;" d="M949 -7 l-223 223 l206 207 q11 11 10 26 q-1 15 -13 25 q-72 58 -163 74 q-91 16 -175 -12 l-215 170 q2 60 -30 110 q-9 13 -25 14.5 q-16 1.5 -27 -9.5 l-219 -219 q-11 -11 -9.5 -27 q1.5 -16 14.5 -24 q50 -33 111 -31 l170 -215 q-29 -84 -12.5 -175.5 q16.5 -91.5 74.5 -163.5 q10 -12 25 -13 q15 -1 26 10 l206 207 l223 -223 q10 -10 23.5 -10 q13.5 0 23 9.5 q9.5 9.5 9.5 23 q0 13.5 -10 23.5 Z" /><glyph glyph-name="zhihu" unicode="&#xe61b;" d="M504 405 l-147 0 l0 224 l130 0 q16 0 27 11 q11 11 11 26.5 q0 15.5 -11 27 q-11 11.5 -27 11.5 l-248 0 q6 28 10 73 l0 3 q1 11 2 16 q1 16 -8.5 28 q-9.5 12 -25.5 14 q-16 2 -28.5 -8 q-12.5 -10 -13.5 -26 q-1 -6 -2 -20 l0 -1 q-3 -29 -6 -46 q-3 -17 -12.5 -46.5 q-9.5 -29.5 -30.5 -58 q-21 -28.5 -53 -58.5 q-12 -11 -12.5 -26.5 q-0.5 -15.5 10.5 -27.5 q11 -12 28 -12 q15 0 26 10 q57 52 88 110 q1 0 2 0 l68 0 l0 -224 l-175 0 q-16 0 -27 -11 q-11 -11 -11 -27 q0 -16 11 -27 q11 -11 27 -11 l173 0 q-14 -234 -190 -322 q-14 -7 -19 -22 q-5 -15 2 -29 q11 -21 34 -21 q10 0 18 4 q156 78 208 250 q3 -8 8 -15 l121 -143 q12 -14 30 -14 q13 0 24 9 q12 10 13.5 26 q1.5 16 -8.5 28 l-121 143 q-10 12 -26 13.5 q-16 1.5 -28 -8.5 q-1 -1 -3 -3 q11 49 14 104 l148 0 q15 0 26.5 11 q11.5 11 11.5 27 q0 16 -11.5 27 q-11.5 11 -26.5 11 ZM922 712 l-299 0 q-16 0 -27 -11 q-11 -11 -11 -27 l0 -553 q0 -15 11 -26.5 q11 -11.5 27 -11.5 l23 0 l5 -93 l0 -1 q2 -22 23 -31 q7 -3 15 -3 q14 0 24 8 l1 1 l120 119 l88 0 q16 0 27.5 11.5 q11.5 11.5 11.5 26.5 l0 553 q0 16 -11.5 27 q-11.5 11 -27.5 11 ZM681 159 l-19 0 l0 477 l222 0 l0 -477 l-64 0 q-14 0 -24 -8 l-1 -1 l-73 -76 l-3 50 l0 1 q-1 15 -12 24.5 q-11 9.5 -26 9.5 Z" /><glyph glyph-name="linkedin" unicode="&#xe6d4;" d="M259 -60 l-191 0 l0 637 l191 0 l0 -637 l0 0 ZM958 -60 l-192 0 l0 338 q0 132 -93 132 q-74 0 -95 -73 l0 -397 l-192 0 q3 572 0 637 l161 0 l0 -127 l2 0 q66 107 189 107 q105 0 158 -65 q62 -71 62 -192 l0 -360 ZM262 734 q0 -40 -29 -67.5 q-29 -27.5 -69.5 -27.5 q-40.5 0 -69.5 27.5 q-29 27.5 -29 67.5 q0 40 29 68 q29 28 69.5 28 q40.5 0 69.5 -28 q29 -28 29 -68 l0 0 l0 0 Z" /><glyph glyph-name="google" unicode="&#xe635;" d="M626 825 l-260 0 q-97 0 -169 -61.5 q-72 -61.5 -72 -142.5 q0 -84 53 -140 q53 -56 143 -56 q10 0 25 1 q-14 -26 -14 -50 q0 -21 9 -35 q9 -14 29 -33 q-8 0 -23.5 -0.5 q-15.5 -0.5 -23.5 -0.5 q-109 0 -183 -62.5 q-74 -62.5 -74 -140.5 q0 -72 80.5 -116 q80.5 -44 197.5 -44 q124 0 201 59 q77 59 77 137 q0 61 -20 98 q-20 37 -81 83 q-2 2 -6 5 q-70 52 -70 75 q0 22 10 37.5 q10 15.5 42 40.5 q77 60 77 139 q0 48 -19.5 87 q-19.5 39 -54.5 60 l68 0 l58 60 ZM538 157 q3 -14 3 -28 q0 -64 -47 -102.5 q-47 -38.5 -150 -38.5 q-77 0 -128.5 42.5 q-51.5 42.5 -51.5 102.5 q0 59 57.5 102 q57.5 43 135.5 42 q35 -1 67 -11 q8 -5 27 -18 q19 -13 26 -18 q7 -5 20.5 -16 q13.5 -11 19.5 -18 q6 -7 12 -17.5 q6 -10.5 9 -21.5 ZM371 465 q-54 2 -97 46 q-43 44 -51 112 q-10 69 21 115.5 q31 46.5 83 44.5 q52 -1 92.5 -50 q40.5 -49 49.5 -119 q9 -69 -18 -110 q-27 -41 -80 -39 ZM838 706 l0 119 l-59 0 l0 -119 l-120 0 l0 -60 l120 0 l0 -120 l59 0 l0 120 l120 0 l0 60 l-120 0 Z" /><glyph glyph-name="plane" unicode="&#xe62f;" d="M496 855 l-361 -929 q-3 -8 2.5 -15.5 q5.5 -7.5 15.5 -7.5 l327 30 l32 761 l32 -761 l327 -30 q10 -1 16 7 q3 4 3 10 q0 4 -1 7 l-361 929 q-4 11 -16 11 q-12 -1 -16 -12 Z" /><glyph glyph-name="bilibili" unicode="&#xe622;" d="M275 844 q-13 -13 -18 -25 q-3 -9 5.5 -35 q8.5 -26 14 -26 q5.5 0 17 -12.5 q11.5 -12.5 11.5 -17.5 q0 -12 -12 -19 q-12 -7 -33 -7 q-25 0 -66 -16 q-41 -16 -58 -33 q-17 -15 -37 -54 l-20 -39 l0 -453 l20 -39 q18 -34 32 -48.5 q14 -14.5 48 -33.5 l34 -18 l702 -4 l40 19 q37 18 56.5 37 q19.5 19 35.5 55 l18 36 l0 223 l0 223 l-17 35 q-16 35 -41 58 q-22 22 -57 37 q-35 15 -61 15 q-39 0 -46 15.5 q-7 15.5 21 40.5 q14 14 18 21.5 q4 7.5 4 22.5 q0 24 -16.5 40.5 q-16.5 16.5 -28.5 16.5 q-8 0 -21 -5.5 q-13 -5.5 -18 -10.5 q-15 -16 -73 -72 l-70 -69 l-81 1 q-79 0 -90 4 q-11 5 -70 63 q-40 39 -60 57 q-20 18 -36.5 27 q-16.5 9 -25.5 5.5 q-9 -3.5 -21 -15.5 ZM904 591 q11 -1 31 -19 l21 -19 l1 -209 q1 -144 0 -179.5 q-1 -35.5 -8 -48.5 q-21 -38 -63 -40 q-25 -1 -340 0 l-315 1 l-43 43 l0 426 l20 22 q19 22 40 24 q12 1 317.5 0.5 q305.5 -0.5 338.5 -1.5 ZM347 429 q-14 -16 -17 -25 q-3 -9 -3 -40 q0 -29 2.5 -38 q2.5 -9 15.5 -23 q40 -47 81 2 q8 9 10.5 20 q2.5 11 2.5 42 q0 34 -2.5 42.5 q-2.5 8.5 -16.5 22.5 q-20 20 -36.5 19.5 q-16.5 -0.5 -36.5 -22.5 ZM726 432 q-14 -14 -16.5 -23 q-2.5 -9 -2.5 -43 q0 -35 2.5 -44 q2.5 -9 15.5 -21 q18 -17 29 -20 q11 -3 27 6 q40 23 36 88 q-2 25 -5 34.5 q-3 9.5 -16 22.5 q-18 19 -34.5 19 q-16.5 0 -35.5 -19 Z" /><glyph glyph-name="psp" unicode="&#xe6c7;" d="M263 627 q42 0 79 -19.5 q37 -19.5 62 -52.5 l217 0 q24 32 60 50 q36 18 78 18 q72 0 123.5 -51.5 q51.5 -51.5 51.5 -123.5 q0 -29 -9 -55 q39 -140 32 -303 q-21 -22 -46 -33.5 q-25 -11.5 -41.5 -14.5 q-16.5 -3 -46.5 -5 q-79 96 -151 254 q-24 9 -41 37 l-239 0 q-17 -27 -42 -36 q-72 -157 -152 -255 q-30 2 -46 5 q-16 3 -41.5 14.5 q-25.5 11.5 -46.5 33.5 q-6 165 33 305 q-9 27 -9 57 q0 72 51 123.5 q51 51.5 124 51.5 ZM433 465 l0 -39 l65 0 l0 39 l-65 0 ZM802.5 428.5 q-12.5 7.5 -26.5 4.5 q-14 -3 -22 -15 q-8 -12 -5 -26.5 q3 -14.5 15.5 -22 q12.5 -7.5 26.5 -4.5 q14 3 22 15 q8 12 5 26.5 q-3 14.5 -15.5 22 ZM720.5 484.5 q-12.5 7.5 -26.5 4.5 q-14 -3 -22 -15 q-8 -12 -5 -26.5 q3 -14.5 15.5 -22.5 q12.5 -8 26.5 -4.5 q14 3.5 22 15.5 q8 12 5 26.5 q-3 14.5 -15.5 22 ZM770.5 564 q-12.5 8 -26.5 5 q-14 -3 -22 -15.5 q-8 -12.5 -5 -26.5 q3 -14 15.5 -22 q12.5 -8 26.5 -4.5 q14 3.5 22 15.5 q8 12 5 26 q-3 14 -15.5 22 ZM852.5 516.5 q-12.5 7.5 -26.5 4.5 q-14 -3 -22 -15 q-8 -12 -4.5 -26.5 q3.5 -14.5 15.5 -22 q12 -7.5 26 -4.5 q14 3 22 15 q8 12 5 26.5 q-3 14.5 -15.5 22 ZM346 509 l-58 -46 l45 -59 l13 105 ZM294 377 l-46 59 l-59 -46 l105 -13 ZM161 435 l54 42 l-42 54 l-12 -96 ZM215 560 l42 -54 l53 42 l-95 12 ZM519 465 l0 -39 l65 0 l0 39 l-65 0 ZM880 701 q-86 42 -186 0 l0 -51 q32 13 66 13 q69 0 120 -47 l0 85 ZM131 701 l0 -85 q51 47 120 47 q34 0 66 -13 l0 51 q-100 43 -186 0 Z" /><glyph glyph-name="cv" unicode="&#xe6c8;" d="M54 -98 q-7 2 -11 7 q-5 5 -5 12 q-1 36 -1.5 96 q-0.5 60 -0.5 124 q2 103 7.5 140 q5.5 37 8.5 39 q4 8 18.5 12.5 q14.5 4.5 36.5 4.5 q24 0 45 -4 q23 -3 38 -6 l-19 -69 l-17 -12 l-2 -1 q-11 -9 -14 -19 q-5 -9 -4 -17 q2 -18 12 -30 q10 -12 13 -13 q5 -3 10 -3 l6 0 q8 3 10 12 l15 58 l11 44 l9 38 l8 31 l7 30 q2 9 8 15 q5 7 13 9 q11 5 22 2 q15 -4 21 -17 q7 -11 4 -27 l-35 -248 l-69 -225 q-2 -6 -8 -10 q-6 -4 -13 -4 l-4 0 l-120 31 ZM209 396 q-2 -6 -3 -12 l-6 -20 l0 453 q0 30 20.5 50 q20.5 20 49.5 21 l471 0 q29 -1 50 -21 q20 -20 21 -50 l0 -493 q0 -13 -5.5 -26 q-5.5 -13 -15.5 -23 l-114 -116 q-11 -10 -24 -15 q-13 -6 -27 -6 l-327 0 l5 28 l2 15 l1 13 l302 0 l0 84 q0 27 18 45 q18 17 45 18 l84 0 l0 476 q-1 5 -5 10 q-4 3 -10 5 l-471 0 q-6 -2 -10 -6 q-4 -4 -4 -9 l0 -384 q-13 -2 -23 -10 q-3 -1 -5 -4 q-12 -9 -19 -23 ZM665 228 l57 57 l-50 0 q-3 0 -4 -2 q-3 -2 -3 -5 l0 -50 ZM38 -179 q-10 2 -15 10 q-5 9 -3 19 l1 7 q3 8 9 13 q6 5 14 6 q3 0 7 -1 l106 -25 q7 -1 11 -6 q5 -4 7 -11 q1 -6 0 -12 l-1 -7 q-3 -10 -11 -16 q-9 -5 -20 -2 l-105 25 ZM385 740 q-9 -6 -12 -16 q-4 -12 -4 -25 q0 -17 5 -29 q3 -10 12 -16 q8 -4 18 -4 q13 0 21 6 q9 7 11 22 q2 6 7 9 q5 2 11 1 l20 -4 q6 -3 9 -7 q3 -6 2 -12 q-8 -29 -29 -45 q-20 -17 -49 -17 q-30 0 -49 13 q-19 12 -29 36 q-9 23 -9 47 q0 27 10 49 q11 21 33 33 q20 11 44 11 q28 0 47 -15 q20 -14 28 -40 q1 -6 -2 -12 q-2 -4 -9 -5 l-19 -6 q-6 -1 -11 2 q-5 3 -6 8 q-5 13 -11 17 q-6 6 -17 6 q-14 0 -22 -7 ZM601 606 q-5 1 -8 3 q-3 2 -6 6 l-60 156 q-2 6 2 12 q4 7 12 7 l22 0 q4 0 8 -3 q4 -3 5 -6 l35 -100 l37 100 q3 3 6 6 q3 3 8 3 l20 0 q8 0 13 -7 q3 -6 1 -12 l-61 -156 q-1 -4 -5 -6 q-3 -2 -8 -3 l-21 0 ZM342 513 q-12 0 -20 9 q-8 8 -8 19 q0 13 8 21 q8 7 20 7 l327 0 q12 0 20 -7 q8 -8 8 -21 q0 -11 -8 -19 q-8 -9 -20 -9 l-327 0 ZM337 412 q-11 2 -16 10 q-7 7 -7 18 l0 3 q1 8 6 14 q3 5 9 7 q6 4 13 4 l327 0 q12 0 20 -8 q8 -8 8 -20 q0 -13 -8 -21 q-8 -8 -20 -8 l-327 0 q-3 0 -5 1 Z" /></font>
</defs>
</svg>
